<svg width="91" height="65" viewBox="0 0 91 65" fill="none" xmlns="http://www.w3.org/2000/svg">
<path d="M5.46961 37.7646C5.84196 37.8144 6.21878 37.8374 6.59581 37.8334L70.7945 37.8334L69.3946 38.37C68.0263 38.9038 66.7815 39.6302 65.7159 40.5165L47.713 55.3541C45.342 57.2195 44.9436 60.2204 46.7689 62.4643C48.8933 64.8554 52.9674 65.3746 55.8688 63.6237C56.1032 63.4822 56.326 63.3279 56.5354 63.1619L89.0904 36.3308C91.6346 34.2363 91.6368 30.8387 89.0955 28.7419C89.0939 28.7405 89.092 28.739 89.0904 28.7377L56.5354 1.90661C53.9892 -0.186042 49.8667 -0.181348 47.3274 1.91718C47.1276 2.08235 46.941 2.2581 46.7689 2.44323C44.9436 4.68714 45.342 7.68803 47.713 9.55346L65.6833 24.4179C66.6386 25.206 67.737 25.8669 68.9388 26.3765L70.8921 27.101L6.95412 27.101C3.62801 26.9992 0.709861 28.9141 0.0850081 31.6086C-0.490605 34.534 1.9201 37.2901 5.46961 37.7646Z" fill="#EB5757"/>
</svg>
