<svg width="91" height="75" viewBox="0 0 91 75" fill="none" xmlns="http://www.w3.org/2000/svg">
<g clip-path="url(#clip0)">
<path d="M5.46961 42.7646C5.84196 42.8144 6.21878 42.8374 6.59581 42.8334L70.7945 42.8334L69.3946 43.37C68.0263 43.9038 66.7815 44.6302 65.7159 45.5165L47.713 60.3541C45.342 62.2195 44.9436 65.2204 46.7689 67.4643C48.8933 69.8554 52.9674 70.3746 55.8688 68.6237C56.1032 68.4822 56.326 68.3279 56.5354 68.1619L89.0904 41.3308C91.6346 39.2363 91.6368 35.8387 89.0955 33.7419C89.0939 33.7405 89.092 33.739 89.0904 33.7377L56.5354 6.90661C53.9892 4.81396 49.8667 4.81865 47.3274 6.91718C47.1276 7.08235 46.941 7.2581 46.7689 7.44323C44.9436 9.68714 45.342 12.688 47.713 14.5535L65.6833 29.4179C66.6386 30.206 67.737 30.8669 68.9388 31.3765L70.8921 32.101L6.95412 32.101C3.62801 31.9992 0.709861 33.9141 0.0850081 36.6086C-0.490605 39.534 1.9201 42.2901 5.46961 42.7646Z" fill="#EB5757"/>
</g>
<defs>
<clipPath id="clip0">
<rect width="91" height="75" fill="white" transform="translate(91 75) rotate(-180)"/>
</clipPath>
</defs>
</svg>
